Coordinates
version=1
nRows=17
nColumns=40
inDegrees=yes

Units are S.I. units (second, meters, Newtons, ...)
If the header above contains a line with 'inDegrees', this indicates whether rotational values are in degrees (yes) or radians (no).

endheader
time	pelvis_tilt	pelvis_list	pelvis_rotation	pelvis_tx	pelvis_ty	pelvis_tz	hip_flexion_r	hip_adduction_r	hip_rotation_r	knee_angle_r	knee_angle_r_beta	ankle_angle_r	subtalar_angle_r	mtp_angle_r	hip_flexion_l	hip_adduction_l	hip_rotation_l	knee_angle_l	knee_angle_l_beta	ankle_angle_l	subtalar_angle_l	mtp_angle_l	lumbar_extension	lumbar_bending	lumbar_rotation	arm_flex_r	arm_add_r	arm_rot_r	elbow_flex_r	pro_sup_r	wrist_flex_r	wrist_dev_r	arm_flex_l	arm_add_l	arm_rot_l	elbow_flex_l	pro_sup_l	wrist_flex_l	wrist_dev_l
      0.21000000	     -7.52482620	     -5.39777741	     -0.50200789	     -0.78834865	      0.93729966	      0.28831771	     24.56237026	      7.91892412	     -3.46345308	     17.74466086	      0.30970276	      1.38456298	      0.00000000	      0.00000000	      2.71445452	     -8.32443758	     -6.63569780	     40.91063965	      0.71402536	     -4.87536769	      0.00000000	      0.00000000	     -2.90039664	      3.11752251	      1.15173027	     -9.42064316	     -4.57377346	     -8.33924124	     43.89689710	     89.24979384	      6.83409054	     18.71282794	     -0.58801879	     -4.92304228	     -4.45966473	     45.98813909	     89.47101725	    -19.85441827	      0.51017583
      0.22000000	     -7.47212570	     -5.88315923	     -0.51985940	     -0.77860286	      0.93867004	      0.28995216	     23.59275865	      8.52915614	     -3.51082179	     17.18110287	      0.29986681	      1.69637801	      0.00000000	      0.00000000	      3.93563591	     -9.37121679	     -6.99690304	     43.45827188	      0.75848993	     -6.12189114	      0.00000000	      0.00000000	     -3.00823238	      3.56510886	      1.49805364	     -9.43030789	     -4.64611762	     -8.31821647	     44.22420393	     89.24902090	      6.81656165	     18.91863108	     -1.13471719	     -4.76405478	     -4.48492131	     45.20650301	     89.47650327	    -19.93086303	      0.67142445
      0.23000000	     -7.67557593	     -6.41346973	     -0.43321178	     -0.76914023	      0.93955766	      0.29126688	     22.91321171	      9.11800688	     -3.78274618	     16.59719787	      0.28967575	      1.82996145	      0.00000000	      0.00000000	      5.52674432	    -10.37653466	     -6.94611520	     45.92049272	      0.80146379	     -6.54624752	      0.00000000	      0.00000000	     -2.80487966	      4.07962265	      1.82882931	     -9.47449140	     -4.77047550	     -8.30507403	     44.49902875	     89.24620915	      6.94638807	     19.28113493	     -1.55837541	     -4.64364185	     -4.16606572	     44.19778340	     89.47820049	    -20.01177539	      0.95089216
      0.24000000	     -7.84063313	     -6.70451007	     -0.35606188	     -0.75990781	      0.94042850	      0.29271399	     22.22229851	      9.50697627	     -3.78199291	     16.06890437	      0.28045529	      2.12556783	      0.00000000	      0.00000000	      7.09222960	    -11.10019525	     -6.86867605	     48.12603862	      0.83995783	     -6.69778093	      0.00000000	      0.00000000	     -2.65030081	      4.31037931	      2.18652954	     -9.51909664	     -4.86493244	     -8.26837178	     44.86719715	     89.24427627	      7.24987437	     19.59886731	     -1.96621069	     -4.58870548	     -3.79891672	     43.21863750	     89.47872292	    -20.12467530	      1.21062801
      0.25000000	     -7.77907418	     -6.77516175	     -0.41645004	     -0.75091468	      0.94170229	      0.29417212	     21.28323162	      9.74589670	     -3.42398082	     15.53438215	      0.27112612	      2.54010772	      0.00000000	      0.00000000	      8.36614732	    -11.49959993	     -6.77518980	     50.00502108	      0.87275226	     -6.63301292	      0.00000000	      0.00000000	     -2.82210474	      4.29373139	      2.56845056	     -9.37274240	     -5.03264001	     -7.95482281	     45.13679954	     89.24214019	      7.41972753	     19.66286113	     -2.43070005	     -4.53367633	     -3.66271558	     42.40973125	     89.48125824	    -20.15755807	      1.40176892
      0.26000000	     -8.11993586	     -7.09663352	     -0.40489285	     -0.74210833	      0.94219465	      0.29540726	     20.81393775	     10.15897755	     -3.56300775	     15.01749668	      0.26210476	      2.62000453	      0.00000000	      0.00000000	     10.16238888	    -12.14368948	     -6.58667146	     51.83751255	      0.90473527	     -5.84614981	      0.00000000	      0.00000000	     -2.50388692	      4.58464507	      2.99177109	     -9.38052302	     -5.18279618	     -7.98329504	     45.50833510	     89.23693639	      7.74259222	     19.92568292	     -2.79304511	     -4.47085375	     -3.18401619	     41.39653654	     89.48007072	    -20.28480528	      1.75986183
      0.27000000	     -8.30007927	     -7.14236894	     -0.44605289	     -0.73356302	      0.94294479	      0.29666243	     20.19510737	     10.33991564	     -3.36048458	     14.54972707	      0.25394064	      2.85485949	      0.00000000	      0.00000000	     11.74544646	    -12.42478437	     -6.42436074	     53.31666933	      0.93055143	     -4.97319460	      0.00000000	      0.00000000	     -2.43482230	      4.55370441	      3.49424282	     -9.34460851	     -5.31847159	     -8.04569908	     45.95779054	     89.23423621	      8.13436937	     20.17990224	     -3.09025555	     -4.43910712	     -2.68027488	     40.38989838	     89.48092642	    -20.45764685	      2.02912697
      0.28000000	     -8.18548892	     -6.95788357	     -0.49753715	     -0.72482503	      0.94420736	      0.29791156	     19.22676197	     10.30946696	     -2.97259319	     14.04669872	      0.24516114	      3.18693486	      0.00000000	      0.00000000	     12.91679822	    -12.41401220	     -6.34271822	     54.39387735	      0.94935225	     -4.04093245	      0.00000000	      0.00000000	     -2.63398687	      4.24860429	      3.85385535	     -9.14804081	     -5.46627120	     -7.78429062	     46.22834230	     89.23334262	      8.26373568	     20.19540160	     -3.56205389	     -4.42536916	     -2.55740578	     39.65332907	     89.48033688	    -20.48909438	      2.17091419
      0.29000000	     -8.08087733	     -6.73967490	     -0.57296062	     -0.71641399	      0.94544192	      0.29910460	     18.33472427	     10.22135822	     -2.81023301	     13.64002446	      0.23806334	      3.37713881	      0.00000000	      0.00000000	     14.11945036	    -12.37600017	     -6.42441257	     55.26223993	      0.96450804	     -3.27011331	      0.00000000	      0.00000000	     -2.90274794	      3.89923388	      4.18792485	     -8.85501174	     -5.58608109	     -7.62283973	     46.47084617	     89.23561518	      8.32942303	     20.18382124	     -4.02329022	     -4.39782674	     -2.51635837	     38.97746753	     89.48865910	    -20.51444906	      2.30359712
      0.30000000	     -8.14336497	     -6.62751256	     -0.65429834	     -0.70789566	      0.94627960	      0.30008390	     17.53691806	     10.25113535	     -2.27557636	     13.05457079	      0.22784524	      3.68235993	      0.00000000	      0.00000000	     15.41940053	    -12.31047362	     -6.25936523	     55.81548268	      0.97416395	     -1.55621828	      0.00000000	      0.00000000	     -2.88569862	      3.71823832	      4.56310291	     -8.69682970	     -5.78799243	     -7.42905622	     46.83628332	     89.22750609	      8.42147988	     20.18276238	     -4.48000145	     -4.33636619	     -2.33584487	     38.16988976	     89.47930107	    -20.58650739	      2.49232031
      0.31000000	     -8.46871900	     -6.53861374	     -0.87854448	     -0.69965700	      0.94661108	      0.30137494	     17.12297964	     10.32259605	     -1.92683646	     12.68622422	      0.22141638	      3.88433126	      0.00000000	      0.00000000	     17.01175006	    -12.35789565	     -6.37992555	     56.24538850	      0.98166722	     -0.16321717	      0.00000000	      0.00000000	     -2.59316377	      3.55061814	      5.43720305	     -8.82077832	     -5.84653199	     -7.93666979	     47.38354143	     89.22887574	      8.51298495	     20.29060622	     -4.62089881	     -4.35222771	     -1.40145551	     37.02987770	     89.47464832	    -21.11878844	      2.56977153
      0.32000000	     -8.39485262	     -6.30477564	     -0.93586641	     -0.69128772	      0.94761526	      0.30229830	     16.22177964	     10.19610473	     -1.63764415	     12.16776634	      0.21236759	      4.10497877	      0.00000000	      0.00000000	     18.13232298	    -12.13931787	     -6.37836243	     56.27581508	      0.98219826	      0.89692238	      0.00000000	      0.00000000	     -2.75769296	      3.20563740	      5.71097081	     -8.57229926	     -5.96833117	     -7.85620873	     47.73405030	     89.22864996	      8.54187356	     20.25499904	     -5.10783665	     -4.30121675	     -1.43216469	     36.36453971	     89.47177337	    -21.20297306	      2.63108726
      0.33000000	     -8.36224049	     -6.08538158	     -1.04044609	     -0.68292669	      0.94847759	      0.30326312	     15.36760217	     10.09004161	     -1.30048214	     11.65791968	      0.20346908	      4.32330784	      0.00000000	      0.00000000	     19.22736203	    -11.92525533	     -6.46108344	     56.02645752	      0.97784615	      2.03551621	      0.00000000	      0.00000000	     -2.85557592	      2.87741005	      6.02999153	     -8.32706714	     -6.06805124	     -7.85852952	     48.05831234	     89.23021751	      8.52744952	     20.22190493	     -5.60590268	     -4.24892702	     -1.45589204	     35.71912472	     89.47262754	    -21.32146412	      2.65991275
      0.34000000	     -8.35762293	     -5.89093998	     -1.14692305	     -0.67456005	      0.94921112	      0.30421152	     14.54370813	      9.99859411	     -1.01440333	     11.14835102	      0.19457543	      4.53193653	      0.00000000	      0.00000000	     20.32095750	    -11.72289681	     -6.57772386	     55.54365475	      0.96941965	      2.91067768	      0.00000000	      0.00000000	     -2.92437566	      2.58613677	      6.31557898	     -8.10483150	     -6.16100926	     -7.88022454	     48.44999229	     89.22973957	      8.49841667	     20.17517184	     -6.11740112	     -4.19574193	     -1.53144734	     35.09467590	     89.47435858	    -21.44099491	      2.68519955
      0.35000000	     -8.35968667	     -5.70333250	     -1.29064084	     -0.66621375	      0.94985077	      0.30510159	     13.72616804	      9.91366693	     -0.65685198	     10.63439130	      0.18560514	      4.74139035	      0.00000000	      0.00000000	     21.34865523	    -11.47889439	     -6.67212591	     54.77711391	      0.95604099	      3.77343965	      0.00000000	      0.00000000	     -2.95133606	      2.30944895	      6.65812603	     -7.88846174	     -6.24487905	     -7.96344216	     48.79862064	     89.22820022	      8.43543602	     20.12984735	     -6.63253861	     -4.11890186	     -1.62459337	     34.50002800	     89.46821986	    -21.59093832	      2.66554420
      0.36000000	     -8.37287693	     -5.56451776	     -1.42953260	     -0.65790957	      0.95036383	      0.30596349	     12.93944714	      9.86378860	     -0.34571957	     10.16701801	      0.17744794	      4.94406614	      0.00000000	      0.00000000	     22.34641752	    -11.27599489	     -6.77045645	     53.78570186	      0.93873759	      4.40223965	      0.00000000	      0.00000000	     -2.97998693	      2.07861049	      6.97650552	     -7.67735103	     -6.32280087	     -8.04791280	     49.18129028	     89.22835985	      8.37025791	     20.07442150	     -7.14770569	     -4.02465481	     -1.73375642	     33.95948231	     89.46720038	    -21.73763210	      2.63178740
      0.37000000	     -8.10100767	     -5.09981719	     -1.94022930	     -0.64958521	      0.95133923	      0.30731886	     11.81325067	      9.55521590	      0.59450308	      9.66490094	      0.16868434	      5.22903220	      0.00000000	      0.00000000	     22.79919034	    -10.86707994	     -7.44353372	     52.43792392	      0.91521443	      5.00604448	      0.00000000	      0.00000000	     -3.33604116	      1.49513437	      7.84754280	     -7.52966407	     -6.36323435	     -8.30776340	     49.58715716	     89.22218152	      7.89384736	     19.81068946	     -7.44867237	     -3.95598996	     -1.43146378	     33.10731347	     89.45538010	    -22.65717360	      1.76726372
